<?xml version="1.0" encoding="utf-8"?>
<!-- Generator: Adobe Illustrator 18.0.0, SVG Export Plug-In . SVG Version: 6.00 Build 0)  -->
<!DOCTYPE svg PUBLIC "-//W3C//DTD SVG 1.1//EN" "http://www.w3.org/Graphics/SVG/1.1/DTD/svg11.dtd">
<svg version="1.1" id="Layer_1" xmlns="http://www.w3.org/2000/svg" xmlns:xlink="http://www.w3.org/1999/xlink" x="0px" y="0px"
	 width="841.9px" height="595.3px" viewBox="0 0 841.9 595.3" enable-background="new 0 0 841.9 595.3" xml:space="preserve">
<g>
	<rect x="0" y="0" fill="#D9A295" width="841.9" height="595.3"/>
	<g>
		<g>
			<polygon fill="#E6E7E8" points="141.3,386.6 152.3,477.8 163.8,476.8 158,382.7 			"/>
			<polygon fill="#E6E7E8" points="81,377.2 69.2,474.7 81,476.8 95.7,377.2 			"/>
			<polygon fill="#D1D3D4" points="190.9,359.2 211,448.8 222.3,446.7 207.2,353.6 			"/>
			<polygon fill="#D1D3D4" points="135,348.5 123.1,446 135,448 149.7,348.5 			"/>
			<g>
				<g>
					<polygon fill="#E6E7E8" points="60.5,245.4 79.9,374.7 91.6,371.2 70.2,242.8 					"/>
					<polygon fill="#E6E7E8" points="112.3,236.8 131.7,366.1 143.3,362.7 122,234.3 					"/>
					<path fill="#ED1C24" d="M50.3,273.3L39,223.8c-0.9-4.2,0.8-8.5,4.5-10.7c11.3-7,38.6-19.8,79.3-15.1c4.2,0.5,7.7,3.6,8.6,7.8
						l9.6,44c1.1,5.2-2,10.4-7.2,11.8l-71.3,19.2C57.1,282.2,51.5,278.9,50.3,273.3z"/>
				</g>
				<path fill="#ED1C24" d="M72,358.3c0,0-6.5,11.9,0,25.4l74,15c0,0,51.6-12.3,70.8-40.4c0,0,0.7-8.3-5.3-16.7s-55.6-13-73.5-11
					C120,332.7,72,358.3,72,358.3z"/>
			</g>
		</g>
		<g>
			<g>
				<path fill="#2B3990" d="M193.8,310.4c0,0,60.4,11.2,78.1,25.8s23.9,113.7,23.9,113.7l-27.9,7.4c0,0-19.3-93.1-26.6-97.4
					s-50.9-9.9-50.9-9.9s28.5,26.3,33.6,43.4c5.1,17.1,8.4,77.6,8.4,77.6l-29.1,4.8c0,0-15.7-69.4-22.8-78.3
					c-7.1-8.9-64.6-31.9-75-56.7L193.8,310.4z"/>
				<path fill="#68C5B5" d="M156,193.1c0,0,12.6,0.8,24.5,8c11.8,7.3,33.6,42.4,33.6,42.4s-7.3,19-23.8,24.6l-9.8-8.5l13.3,50.8
					c0,0-12.8,39.9-88.3,30.5c0,0-13.2-85.3-8.8-113.9s31.1-37.5,31.1-37.5L156,193.1z"/>
				<path fill="#5BAEA0" d="M127.8,189.4l9.8,1.3c-3.4,2.7-10.9,10.3-18.8,29.5c-8.7,21.2,3.3,95.5,8.1,122.1
					c-6.5,0-13.6-0.5-21.4-1.4c0,0-13.2-85.3-8.8-113.9C101.2,198.3,127.8,189.4,127.8,189.4z"/>
				<path fill="#FDC590" d="M130.6,148.3l-2.8,41.1c0,0,18.9,26.9,27.2,23.4c4.5-1.9,1-19.7,1-19.7l-2-38.4L130.6,148.3z"/>
				<path fill="#FAB389" d="M130.6,148.3l23.5,6.4l1.8,35.2c-8.7-2.1-22.4-15.8-26-31.6L130.6,148.3z"/>
				<g>
					<path fill="#FDC590" d="M183.2,92.8c6.8,6,10,15.2,10.6,24.3s-1.3,18.1-3.2,26.9c-1.6,7.9-3.3,15.7-4.9,23.6
						c-1,4.9-2.2,10.1-6,13.3c-2.6,2.2-6,3.2-9.4,3.5c-14.6,1.2-27.7-9.8-35.5-22.3c-6.3-10-10.4-21.5-11.9-33.2
						c-1.8-14,1-30.1,12.5-38.2c6.4-4.6,14.6-5.9,22.4-5.9C166.8,84.8,176.3,86.8,183.2,92.8z"/>
					<path fill="#F79880" d="M178.1,145.1c-1.5-4.4-4.2-8.4-7.8-11.4c0.1,6.5,0.1,13,1.2,19.4c1.3,0.6,2.8,1,4.2,0.6
						c1.6-0.5,2.6-2.1,2.9-3.7C179,148.4,178.6,146.7,178.1,145.1z"/>
					<path fill="#414042" d="M153.9,132.5l-4.1-2.2c0-0.1,0-0.1,0-0.2c0.1-0.9,0.2-1.8,0.6-2.5c1.4-2.7,4.9-2.1,6.4,0.2
						c1.4,2.1,1.7,5.8,0.9,8.2c-1.4,4.4-5.9,3.3-7.2-0.6c-0.2-0.7-0.4-1.4-0.5-2.2L153.9,132.5z"/>
					<path fill="#414042" d="M180.5,132.5l-4.1-2.2c0-0.1,0-0.1,0-0.2c0.1-0.9,0.2-1.8,0.6-2.5c1.4-2.7,4.9-2.1,6.4,0.2
						c1.4,2.1,1.7,5.8,0.9,8.2c-1.4,4.4-5.9,3.3-7.2-0.6c-0.2-0.7-0.4-1.4-0.5-2.2L180.5,132.5z"/>
					<path fill="#FFFFFF" d="M155.1,166.4c1.7,1,3.5,1.8,5.4,2.2c1.6,0.4,3.3,0.6,4.9,0.5c5.7-0.3,10.7-5.6,10.8-11.3
						c-5.1,1.8-11,1.5-15.9-1c-2.4-1.2-5-3.1-7.6-2.5C148.7,155.4,150.1,163.3,155.1,166.4z"/>
					<path fill="#594A42" d="M193.8,123.2c0,0-3.9-7.8-6.6-16.9c0,0-21.3,4.6-43,1.1c0,0,0.3,16.4-12.4,20.4l-5.6,16
						c0,0-8.3-15.2-9.7-31.6S127.8,89,127.8,89s-0.9-11,12.6-16.9c13.5-5.9,38.2,6.2,51.4,6.5c13.2,0.3,15.1-3.8,15.1-3.8
						s3,21.5-13,25.8C193.8,100.6,199.1,111.6,193.8,123.2z"/>
					<path fill="#FDC590" d="M114,144.7c3.8,6,10.6,10.9,17.6,9.8c0.6-0.1,1.3-0.3,1.6-0.8c0.3-0.5,0.3-1.1,0.2-1.6
						c-0.8-6.7-4.6-12.9-10.3-16.7c-3-2-7.4-3-9.8-0.4C111,137.6,112.2,141.8,114,144.7z"/>
					<path fill="#F79880" d="M118.7,145.8c1.9,3.1,5.4,5.6,9,5c0.3,0,0.6-0.1,0.8-0.4c0.2-0.2,0.1-0.5,0.1-0.8
						c-0.4-3.4-2.4-6.6-5.3-8.5c-1.5-1-3.8-1.6-5-0.2C117.1,142.2,117.8,144.3,118.7,145.8z"/>
				</g>
				<g>
					<polygon fill="#754C29" points="385.2,284.1 390.1,399.3 277.9,525.1 277.9,402.1 					"/>
					<polygon fill="#603913" points="277.9,525.1 277.9,402.1 108.4,374.7 108.4,496.5 					"/>
					<g>
						<polygon fill="#A97C50" points="403,269.9 258.3,256.8 90.4,359.9 290.4,393.4 						"/>
						<polygon fill="#8B5E3C" points="403,269.9 403,284.1 290.4,413.4 290.4,393.4 						"/>
						<polygon fill="#754C29" points="290.4,413.4 90.4,378.7 90.4,359.9 290.4,393.4 						"/>
					</g>
				</g>
				<path fill="#FDC590" d="M211.7,248.7c12.7,11.3,54,27.7,54,27.7s6.5-4.3,15.1-3.2c8.6,1.1,18.3,18.3,14,24.7s-26.4-5.9-36-8.6
					c-9.7-2.7-44.1-12.9-60.3-24.2c-0.3-0.2-0.5-0.4-0.8-0.6C204.5,259.9,209.1,253.2,211.7,248.7z"/>
				<g>
					<polygon fill="#E6E7E8" points="249.7,355.2 190.4,336.7 260.1,286.2 320.8,293 					"/>
					<polygon fill="#D1D3D4" points="308,304.2 253.5,351.9 216.8,340.5 272.4,300.2 					"/>
					<polygon fill="#D1D3D4" points="252.5,310.4 236.9,322.2 226.2,317.9 242.7,307.5 					"/>
					<polygon fill="#D1D3D4" points="249.7,355.2 249.7,360.9 190.8,342.3 190.4,336.7 					"/>
					<polygon fill="#BCBEC0" points="249.7,360.9 311.5,305.2 309.7,298.6 249.7,355.2 					"/>
					<g>
						<polygon fill="#E6E7E8" points="341,229.6 272.8,276.3 252.5,358.3 325.8,292.3 						"/>
						<polygon fill="#F1F2F2" points="341,229.6 337.1,227.7 268,273.6 249.7,355.2 252.5,358.3 272.8,276.3 						"/>
					</g>
				</g>
				<path fill="#FDC590" d="M135.4,259.1c0,0,9.1,14.5,21.4,25.8c12.3,11.3,54.3,28,54.3,28s6.5-4.3,15.1-3.2s18.3,18.3,14,24.7
					s-26.4-5.9-36-8.6s-44.1-12.9-60.3-24.2c-16.1-11.3-28.1-33.9-28.1-33.9L135.4,259.1z"/>
				<path fill="#68C5B5" d="M118.9,220.2l29.7,47.8c0,0-5.4,12.8-24.7,20.5L99,261.5C99,261.5,89.7,233.8,118.9,220.2z"/>
				<path fill="#5BAEA0" d="M132.8,284c-2.6,1.6-5.5,3.1-8.9,4.4L99,261.5c0,0-5.4-16,4.8-29.6C103.7,242.2,108.1,260.5,132.8,284z"
					/>
				<path fill="#5BAEA0" d="M200.9,262c-3,2.5-6.5,4.7-10.6,6.1l-9.8-8.5l-6-22.3L200.9,262z"/>
			</g>
			<g>
				<path fill="#FFFFFF" d="M219,180.1l30.3-21.7c0,0-29.1-20.9-11.8-54.1C259.3,62.5,401,51.5,414.4,115s-72,81.8-140.2,54.1
					L219,180.1z"/>
				<g>
					<path fill="#594A42" d="M280.6,103.6c0,1-0.1,5.3-0.1,6.5l0,5.1c0,0.5-0.4,0.4-0.9,0.4c-0.4,0-1.1,0.1-1.6,0.1
						c-0.7,0-0.7-0.3-0.6-1.1c0-0.6-0.1-4.8-0.1-6.1c0-1.3,0.3-5.8,0.3-7s0.1-5.2,0.1-6.2c0-0.5,0-1.1,0-1.8s0-1.2,0.2-1.3
						c0.1-0.1,0.2-0.1,0.2-0.1c0.2,0,0.3,0.2,0.8,0.1c0.3,0,0.6,0,0.8,0c0.3,0,0.6,0,0.9,0.1c0.6,0.2,0.6,1.2,0.8,2.1
						c0.3,1.3,1.4,4.1,1.9,5.2c0.6,1.1,1.9,4,2.3,5.3c0.2,0.6,0.7,1.6,1.1,2.5l0.7,1.5c0.5-1,1-1.8,1.4-2.7l2.1-4.3
						c1.1-2,2.3-4.8,3-6c0.6-1.2,1.8-3.5,2.3-3.5c0.2,0,0.3,0.2,0.3,0.4c0,0.5-0.2,1.3-0.3,1.9c-0.1,0.9-0.1,6.5-0.1,7.9
						c0,1.5-0.1,5.6-0.2,6.7c0,0.4-0.1,1.5-0.1,2.5c0,1.4,0,2.9,0,3.2c0,0.1,0,0.1,0,0.2c0,0.3-0.1,0.4-0.2,0.3c0,0,0,0-0.1,0
						c-0.2,0-0.6,0.1-0.8,0.1c-0.2,0-0.2-0.2-0.2-0.6c0,1.4-0.1-4.7,0.1-5.9c0.1-1,0.2-4.6,0.2-5.6c0-0.5,0-1.7,0.1-3l0.1-2.4
						c-0.2,0.2-0.3,0.5-0.4,0.7c-0.2,0.4-0.5,0.9-0.6,1.2c-0.4,0.7-2.4,4.9-2.9,5.7c-0.4,0.8-2.6,5.4-2.9,6c-0.3,0.6-0.9,2-1,2
						c-0.1,0-0.3-0.3-0.6-0.8c-0.4-0.5-1.2-2.6-1.5-3.6c-0.3-1-2.5-4.7-2.9-5.7c-0.2-0.5-0.6-1.4-0.9-2.2c-0.2-0.5-0.4-1-0.6-1.4
						l-0.1,1.4C280.6,102.2,280.6,103.1,280.6,103.6z"/>
					<path fill="#594A42" d="M305.8,92.1c0.1-0.3,0.3-0.4,0.5-0.2c0.2,0.2,0.3,0.5,0.4,0.9c0.1,0.5,1.3,3,1.7,3.9
						c0.5,1,1,2.2,1.4,3.5c0.4,1.3,2.1,4.7,2.8,6.2c0.7,1.5,2.4,4.7,2.8,5.6c0.4,0.9,1.1,2.4,1.5,3c0.1,0.2,0.2,0.3,0.2,0.4
						c0,0.2-0.3,0.3-0.6,0.3h-2.4c-0.3,0-0.4-0.6-0.7-1.1c-0.3-0.5-1.1-2.9-1.3-3.4c-0.2-0.5-0.6-1.3-0.8-1.9
						c-0.2-0.6-0.3-0.7-0.6-0.7c-0.2,0-0.8,0.1-1.3,0.1c-0.5,0.1-2.6,0-3.5,0.1c-0.3,0-0.7,0-1.1,0c-0.8,0-1.6,0-1.7,0
						c-0.3,0-0.3,0.4-0.4,0.7c-0.1,0.3-0.6,2.4-0.7,3l-0.4,1.4l-0.3,1c-0.1,0.5-0.2,0.6-0.4,0.6h-1.9c-0.1,0-0.2,0-0.2-0.1
						s0.1-0.3,0.1-0.5c0.1-0.3,0.2-0.4,0.5-1.2c0.3-0.9,1.2-3.9,1.4-5.3c0.3-1.5,0.9-3.2,1.2-4.2c0.3-1.1,0.4-1.6,0.9-3.2
						c0.4-1.5,0.9-3.1,1.2-4.3l0.8-2.6C305.4,93.2,305.7,92.5,305.8,92.1z M309.2,104.1c0-0.1,0-0.1-0.1-0.3
						c-0.2-0.4-1.2-2.8-1.6-3.7c-0.4-1-0.7-1.9-0.8-2c-0.2-0.5-0.3-0.7-0.4-0.7c-0.1,0-0.2,0.6-0.4,1.2c-0.2,0.5-0.7,2.3-0.9,2.9
						c-0.2,0.7-0.6,1.7-0.7,2.2c-0.1,0.2-0.1,0.4-0.1,0.5s0.1,0.2,0.3,0.2c0.4,0,3.3-0.1,3.9-0.2
						C308.9,104.2,309.2,104.2,309.2,104.1z"/>
					<path fill="#594A42" d="M324.5,115.3c0,0.6-0.4,0.5-0.6,0.5c-0.3,0-1.2-0.1-1.7-0.1c-0.5,0-2.2,0.1-2.5,0.1
						c-0.4,0-0.3-0.2-0.3-0.8l0-8c0-0.7,0-1.8,0-3.1c0-1.9,0-3.9-0.1-4.6c0-0.4,0-0.8,0-1.2c0-0.9,0-1.7,0-2.2l0-2.6
						c0-0.2,0.1-0.3,0.3-0.3c0.2,0,0.5,0.1,0.7,0.1l3.7,0c0.5,0,0.5,0.2,0.5,0.5c0,0.2,0,0.7,0,1.6c0,0.9-0.4,3.5-0.4,4.5v2.2
						c0,0.4,0,0.9,0,1.4c0.3-0.3,0.6-0.7,0.8-1l1.2-1.6c0.6-0.8,3.2-4.4,3.5-4.9c0.3-0.5,1.7-2,1.9-2.5c0.2-0.5,0.7-0.4,1-0.5
						c0.3,0,0.9-0.1,1.4-0.1c0.1,0,0.1,0,0.1,0c0.4,0,0.6,0.1,0.6,0.2c0,0.2-0.2,0.3-0.3,0.5c-0.2,0.2-2.6,3.1-3.2,3.9
						c-0.5,0.8-3.3,4.6-3.8,5.2c-0.4,0.5-1.7,2.6-1.7,2.8c0,0.2,0.4,0.5,0.9,1c0.4,0.5,2.1,2.3,2.5,2.7c0.4,0.4,2.3,2.6,3.4,3.7
						c1.1,1,2.8,2.8,3,3.1c0,0,0.1,0.1,0.1,0.1c0,0.2-0.4,0.3-0.7,0.2c-0.4,0-2.1,0.1-2.7,0.1c-0.7,0-1-0.1-1.3-0.4
						c-0.2-0.2-0.7-0.7-1.2-1.2c-0.5-0.5-1.4-1.4-2.3-2.3c-0.4-0.4-1.2-1.1-1.9-1.7l-1.2-1.1v2.8
						C324.3,112.8,324.5,114.7,324.5,115.3z"/>
					<path fill="#594A42" d="M340.9,97.5c0,1.8-0.3,7.4-0.3,9.1c0,1.7,0.1,7.5,0.2,8.3c0,0.2,0,0.3,0,0.5c0,0.4-0.1,0.4-0.3,0.5
						c-0.2,0.1-0.6,0.1-1,0.1c-1.1,0-0.8,0.1-0.8-1.4c0-1.2,0.1-9,0.1-11.2c0-2.2,0.3-8.5,0.2-9.3c0-0.2,0-0.5,0-0.7
						c0-0.5,0.1-0.9,0.5-0.9c0.2,0,0.7,0,1.2,0c0.3,0,0.3,0.2,0.3,0.5c0,0.2-0.1,0.5-0.1,0.8C340.9,94.4,340.9,95.7,340.9,97.5z"/>
					<path fill="#594A42" d="M351,104.2c0,2.3,0.1,7,0.1,8c0,1,0.1,2.6,0.1,3.2c0,0,0,0.1,0,0.1c0,0.5-0.3,0.5-0.6,0.5
						c-0.4,0-1.4,0.1-2.2,0.1c-0.8,0-2.3,0.1-3.2,0.1c-0.9,0-0.8-0.5-0.9-0.9c-0.1-0.3-0.1-0.6-0.1-1.4c0-0.4,0-0.8,0-1.3
						c0-1.9,0.1-5.8,0.2-7.3c0.1-1.6,0.6-7.2,0.6-8.5c0-1.3,0-2.6,0.1-3.9c0.1-0.8,0.5-0.9,0.9-0.9c0.3,0,0.7,0.1,0.9,0.1
						c0.5,0,1.9,0,2.8,0c1,0,1.3,0.2,1.6,0.7c0.3,0.5,1.2,2.7,2,4.4c0.8,1.6,2.9,6.3,3.6,7.9c0.4,0.8,1.1,2.1,1.6,3.2l1,2l-0.1-1.9
						l-0.1-3.2c0-0.3,0-0.7,0-1c0-1.4,0-2.7,0.1-3.6c0-1.1-0.1-3.5-0.1-4.7l0.1-3.2c0-0.4,0.2-0.5,0.5-0.5c0.2,0,0.5,0.1,0.7,0.1
						c0.4,0.1,0.5,0.1,1.1,0.1c0.4,0,0.4,0.1,0.4,0.3c0,0.2-0.1,0.4-0.1,0.7c0,0.6-0.1,7.7-0.1,9.5c0,0.3,0,0.6,0,1
						c0,1.9,0.2,4.7,0.2,5.9c0,1.4,0.2,5.1,0.2,5.7c0,0,0,0.1,0,0.1c0,0.6-0.3,0.6-0.6,0.6c-0.1,0-0.2,0-0.4,0c-0.4,0-0.9,0.1-1.1,0
						c-0.4,0-0.4,0-0.8-0.7c-0.3-0.6-2.1-5.1-2.7-6.4c-0.7-1.3-3-6.4-3.6-7.9c-0.4-0.8-1-1.9-1.5-2.9l-1-1.7l0.1,3.1
						C350.9,101.1,351,103,351,104.2z"/>
					<path fill="#594A42" d="M380.4,106.8c0.4,0,0.6,0.5,0.6,1.1c0,0.6-0.1,8.2-7.5,8.2c-5.2,0-7.7-6.8-7.7-12.7
						c0-5.9,3.6-11,7.7-11c4,0,5.1,2.4,5.6,2.9c0.2,0.2,0.3,0.4,0.3,0.6c0,0.3-0.1,0.5-0.3,0.7c-0.3,0.3-1.2,1.1-1.5,1.3
						c-0.1,0.1-0.2,0.1-0.3,0.1c-0.2,0-0.4-0.1-0.6-0.3c-0.3-0.3-1.6-2.1-3.6-2.1c-2.9,0-4.3,5.5-4.3,8.6c0,3.1,1.3,8.8,5.2,8.8
						c2,0,3-0.9,3.6-1.8c0.4-0.6,0.6-1.2,0.7-1.9h-1c-0.5,0-1.1,0-1.5,0l-3.3,0c-0.5,0-0.6-0.3-0.6-0.5v-1.3c0-0.5,0.2-0.5,0.4-0.5
						h1.5C374.2,107,380,106.8,380.4,106.8z"/>
					<path fill="#594A42" d="M278.9,151.2c0.1-0.5,0.4-1.5,0.6-2.4c0.3-0.9,0.9-2.8,1.1-3.8c0.2-1,0.7-2.4,0.9-3.1
						c0.2-0.8,0.6-2.4,0.9-3.4c0.3-1,0.5-1.8,0.8-2.3c0.2-0.5,0.9-2.3,1-3.2c0.3-0.9,0.5-1.6,1.1-1.6c0.3,0,0.5,0.7,0.9,1.6
						c0.4,0.9,1,3.5,1.2,4c0.1,0.6,1.5,4.4,1.7,5c0.3,0.7,1.4,3.9,1.8,4.7c0.3,0.8,1.1,3.2,1.3,4.2c0.3,1.1,1.1,3.2,1.3,3.6
						c0.1,0.2,0.1,0.3,0.1,0.3c0,0.1-0.1,0.1-0.4,0.1h-1.8c-0.2,0-0.3,0-0.4-0.3c-0.2-0.4-0.3-0.8-0.4-1.2c-0.2-0.6-0.4-1.2-0.4-1.5
						c-0.1-0.5-0.4-1.7-0.7-2.2c-0.1-0.3-0.4-0.9-0.5-1.4l-0.3-1c-0.2-0.5-0.3-0.5-0.5-0.5c-0.4,0-0.7,0-1,0c-0.6,0-1.2,0.1-1.4,0.1
						c-0.3,0-1.4,0-2.4,0h-2c0,0,0,0-0.1,0c-0.1,0-0.2,0.1-0.3,0.4l-0.1,0.3l-0.1,0.6c-0.2,0.5-0.7,3.1-0.8,3.3
						c0,0.3-0.2,0.8-0.3,1.1c-0.1,0.1-0.2,0.6-0.3,1.1c-0.1,0.3-0.2,0.6-0.2,0.9c-0.1,0.3-0.1,0.3-0.4,0.3h-0.7
						c-0.2,0-0.3-0.1-0.2-0.4c0,0,0-0.1,0-0.2c0-0.1,0-0.2,0.1-0.5l0.3-1.2C278.5,152.5,278.8,151.9,278.9,151.2z M287.7,144.7
						c0-0.1-0.1-0.4-0.2-0.7c-0.3-0.6-0.8-2.7-1.2-3.7c-0.3-1-1.1-3.5-1.1-4.1c-0.2-0.6-0.5-1.7-0.7-1.7c-0.1,0-0.3,0.9-0.5,1.6
						c-0.2,0.7-1,3.7-1.2,4.5c-0.2,0.8-0.8,3.2-1.1,3.9c0,0.1-0.1,0.2-0.1,0.2c0,0.4,0.6,0.3,0.9,0.3c0.3,0,1.5-0.1,1.9-0.1
						c0.2,0,0.6-0.1,1.1-0.1c0.7,0,1.4,0,1.8,0C287.6,144.9,287.7,144.8,287.7,144.7z"/>
					<path fill="#594A42" d="M319.6,150.8c0,4.7-6.4,4.4-7.7,4.4c-1.3,0-4.4,0.1-5.2,0.1c-0.8,0-0.9-0.6-0.9-1.2l0-7.3
						c0-0.6,0-1.1,0-1.6c0-0.6,0-1.2,0.1-2.3c0.1-1.8,0.1-6.9,0.2-7.8c0-0.3,0-0.6,0-0.9c0-0.7-0.1-1.5-0.1-1.6c0-0.1,0-0.1,0-0.2
						c0-0.1,0.1-0.2,0.4-0.3c0.3-0.1,2.6-0.5,4.3-0.5c3.5,0,6.8,0.9,6.8,6c0,2.6-1,4-1.9,4.9c-0.6,0.5-1.2,0.9-1.9,1.1
						C314.3,143.9,319.6,145.7,319.6,150.8z M317.5,150.8c0-3.6-1.9-5.2-3.8-6c-1.1-0.4-2.4-0.6-3.8-0.6c0,0.1,0,0.2,0,0.3
						c0,0.2,0,0.4,0,0.8c0,0.7,0.1,3.3,0.1,3.9c0,0.6-0.1,0.7-0.1,1.5c0,0.8,0.1,2.9,0.1,3.4c0,0.7,0.4,0.5,1,0.5
						C315.5,154.6,317.5,153,317.5,150.8z M310,143c0,0.2,0,0.3,0.2,0.3c0.3,0,6-0.3,6-5.3c0-5.1-3-5.3-6-5.3l-0.1,2.1
						c0,1.2-0.1,2.6-0.1,3.5v3.7C310,142.5,310,142.7,310,143z"/>
					<path fill="#594A42" d="M339.4,154.7c0,0.1,0,0.1,0,0.2c0,0.2-0.2,0.3-0.8,0.3c-0.6,0-5.3-0.1-6.5-0.1c-1,0-4,0.2-5.4,0.2
						c-0.3,0-0.5,0-0.6,0c-0.2,0-0.5,0-0.8,0c-0.8,0-1.9,0.1-2.5,0.1c-0.7,0-0.6-0.2-0.6-0.9c0-0.5,0.2-5.1,0.2-5.9
						c0-0.7-0.2-2.9-0.2-4c0,1.6,0.4-5.4,0.4-6.4l0-3.7c0-0.3-0.1-1.6-0.1-2.1v0c0-0.4,0.5-0.2,0.8-0.2c0.3,0,0.5,0,1.2,0
						c0.1,0,0.2,0,0.3,0c0.1,0,0.2,0,0.2,0.3c0,0.3-0.2,5.9-0.2,6.9l0,4.7c0,0.5,0.1,2.1,0.1,3.1c0,0.4,0,0.7,0,0.9
						c0,0.3,0,0.5,0,0.6c0,0.1,0,0.1,0,0.2l0.8,0.1c0.5,0,1.1,0.1,1.7,0c1.2,0,4.9-0.1,6.1-0.1c1.2,0,4.5,0.1,5,0.1
						c0.3,0,0.4,0.1,0.4,0.2c0,0.1-0.1,0.2-0.1,0.4v1.5C339.1,151.6,339.4,154.4,339.4,154.7z"/>
					<path fill="#594A42" d="M359.2,143.4c0,2.2-0.6,12-9.5,12c-4.4,0-6.6-3.2-7.7-6.3c-0.7-1.9-1.1-4-1.1-6.4
						c0-5.9,4.2-11.3,8.5-11.3c1.8,0,3.4-0.1,4.5,0.7C358.2,135.1,359.2,141.7,359.2,143.4z M356.5,143.4c0-5.4-2.5-10-6.4-10
						c-1.2,0-2.1-0.1-3.1,0.9c-1,1-4,3.6-4,8.8s1.7,10.5,6.6,10.5C354.5,153.6,356.5,148.8,356.5,143.4z"/>
					<path fill="#594A42" d="M370.6,145.3c-0.6-0.1-0.6-0.3-0.6-0.5c0-0.3,0.1-0.6,0.3-1.3c0.2-0.8,0.5-0.7,0.8-0.7
						c0.3,0,1.4,0.2,2.7,0.3c1.4,0.2,3.2,0.5,4.3,0.6c0.5,0,0.7,0.3,0.8,0.6c0,0.2,0.1,0.4,0,0.6c-0.5,8.8-5.1,10.7-7.9,10.7
						c-2.1,0-9-1.7-9-11.6c0-11.4,6.5-12.5,8.9-12.5c4.9,0,6.7,4.1,6.9,4.5c0.2,0.4,0.4,1,0.5,1.3c0,0.1,0,0.1,0,0.2
						c0,0.2-0.2,0.2-0.6,0.4c-0.5,0.3-1.7,0.9-2.4,1.2c-0.6,0.4-1.2,0.8-1.8,1.2c-0.3,0.2-0.5,0.3-0.6,0.4c-0.1,0.1-0.2,0.1-0.3,0.1
						c-0.1,0-0.2,0.1-0.3,0.1c-0.3,0-0.3-0.4-0.5-0.6c-0.2-0.3-0.6-1.1-1.4-1.1c-1.4,0-2.1,2.8-2.1,4.7c0,1.8-0.1,5,2.1,5
						c1.1,0,1.6-0.8,1.8-1.6c0.2-0.5,0.2-1,0.2-1.6l-0.7-0.1C371.3,145.4,370.9,145.3,370.6,145.3z"/>
				</g>
			</g>
		</g>
		<g>
			<g>
				<polygon fill="#D1D3D4" points="568.5,159.6 564.5,187.6 607.5,187.6 604,159.6 				"/>
				<polygon fill="#BCBEC0" points="568.5,159.6 604,159.6 605.4,170.8 567.7,165.2 				"/>
				<g>
					<polygon fill="#D1D3D4" points="505.7,61.2 511,164.1 659.7,164.1 666.3,61.2 					"/>
					<polygon fill="#FFFFFF" points="513.3,70.7 519.4,152 653.2,154.7 658.7,70.7 					"/>
					<polygon fill="#ED1C24" points="514.4,84.5 657.7,85.9 658.7,70.7 513.3,70.7 					"/>
					<g>
						<rect x="528.2" y="95.5" fill="#ED1C24" width="72.6" height="32.3"/>
						<rect x="613.5" y="95.5" fill="#ED1C24" width="30.4" height="20.8"/>
						<rect x="613.5" y="121.9" fill="#ED1C24" width="30.4" height="20.8"/>
						<polygon fill="#D1D3D4" points="528.2,133.8 592.7,133.8 592.7,136.6 528.2,138.3 						"/>
						<polygon fill="#D1D3D4" points="564.5,141 528.2,141 528.2,143.8 564.5,145.4 						"/>
					</g>
				</g>
				<polygon fill="#D1D3D4" points="557.5,185.8 613.5,185.8 614.7,193.8 557.5,192.6 				"/>
			</g>
			<g>
				<g>
					<path fill="#8B5E3C" d="M453.1,260.4c0,0,40.6,2.3,79,22.5c0,0,36.1-18.5,80.6-22.5l-5.8,73.4c0,0-45.7,1.2-67,19.1h-14.2
						c0,0-17.6-23.1-61.5-25.4L453.1,260.4z"/>
					<path fill="#D1D3D4" d="M461.3,256.5c0,0,43.2-0.4,72.7,26c0,0,27.2-25.5,68.8-27.8l-8.1,75.7c0,0-49.4,1.9-62.7,18.7
						c0,0-14.7-18.6-60.3-25.6L461.3,256.5z"/>
					<path fill="#F1F2F2" d="M466.1,250.8c0,0,40.3-0.4,67.8,27.6c0,0,25.3-27,64.2-29.5l-7.6,80.4c0,0-46.1,2-58.5,19.9
						c0,0-13.7-19.7-56.3-27.1L466.1,250.8z"/>
					<polygon fill="#ED1C24" points="504,258.8 504,341.2 507.3,338.7 511.6,341.2 511.6,260.4 					"/>
				</g>
				<g>
					<g>
						<path fill="#414042" d="M540.6,304.3V285l43.7-22.4l-1.8,25.2L540.6,304.3z M541.6,285.7v17.1l40-15.6l1.6-22.8L541.6,285.7z"
							/>
					</g>
					<g>
						
							<rect x="541.1" y="285.9" transform="matrix(0.9986 5.304071e-002 -5.304071e-002 0.9986 15.9834 -29.385)" fill="#414042" width="41.1" height="1"/>
					</g>
					<g>
						
							<rect x="561.9" y="254.3" transform="matrix(0.6833 0.7301 -0.7301 0.6833 385.1456 -320.8702)" fill="#414042" width="1" height="58.5"/>
					</g>
					<g>
						<path fill="#414042" d="M540.6,323.5v-14.7l16.9-6l1.9,14.7L540.6,323.5z M541.6,309.5v12.6l16.7-5.3l-1.6-12.6L541.6,309.5z"
							/>
					</g>
					<g>
						<path fill="#414042" d="M563.3,316.5l-1.4-15.1l18-7.3v17.4L563.3,316.5z M563,302.1l1.2,13.1l14.7-4.4v-15.2L563,302.1z"/>
					</g>
					<g>
						
							<rect x="571.1" y="292.3" transform="matrix(0.8014 0.5981 -0.5981 0.8014 296.1604 -281.2494)" fill="#414042" width="1" height="26.2"/>
					</g>
					<g>
						
							<rect x="561.2" y="306" transform="matrix(0.8748 0.4844 -0.4844 0.8748 219.9226 -238.2106)" fill="#414042" width="19.4" height="1"/>
					</g>
					<g>
						
							<rect x="540.2" y="312.7" transform="matrix(0.9115 0.4112 -0.4112 0.9115 177.4322 -198.4468)" fill="#414042" width="19.5" height="1"/>
					</g>
					<g>
						
							<rect x="548.6" y="300.6" transform="matrix(0.7705 0.6375 -0.6375 0.7705 325.6985 -278.1605)" fill="#414042" width="1" height="25.1"/>
					</g>
				</g>
			</g>
			<g>
				<path fill="#414042" d="M713.7,417.2c0,0,6.8-1.7,9.3,3.7c3.3,7-7.1,9.5-7.1,9.5L713.7,417.2z"/>
				<path fill="#ED1C24" d="M691.5,399.2c0,0,5.9,33.1,8.4,66.8c0,0,17.3,0.3,26.4-5c0,0-5.5-37.7-16.9-63.7L691.5,399.2z"/>
				<path fill="#414042" d="M684.1,371.1c0,0-14.9,0.4-17,12.8c-2.8,16.3,19.8,15.4,19.8,15.4L684.1,371.1z"/>
				<path fill="#BCBEC0" d="M790.6,379.4c0,0,7,0.2,8,6c1.3,7.7-9.3,7.3-9.3,7.3L790.6,379.4z"/>
				<path fill="#ED1C24" d="M680,363.6l1.4,39.6c0,0,55.7,0,103.9,28.5l6.8-95.6C792.1,336.1,750.1,377.8,680,363.6z"/>
				<polygon fill="#F1F2F2" points="789.6,330.9 782.3,435.7 789.7,437.2 797,332.5 				"/>
				<path fill="#F1F2F2" d="M736.8,359.9c-18.2,2.9-39.3,3.1-62.8-1.7l1.7,50.3c0,0,22.8,0,53.7,6.6L736.8,359.9z"/>
				<path fill="#414042" d="M699.8,466c0,0,17.3,0.3,26.4-5c0,0-0.6-4.1-1.8-10.5c-9.2,1.5-19.2,1.8-25.8,1.9
					C699.1,456.9,699.5,461.5,699.8,466z"/>
			</g>
			<g>
				
					<rect x="484.4" y="517.2" transform="matrix(0.7071 -0.7071 0.7071 0.7071 -221.1828 506.4147)" fill="#282F39" width="32.6" height="5.9"/>
				
					<rect x="492.8" y="522.5" transform="matrix(0.7071 -0.7071 0.7071 0.7071 -226.4262 504.2428)" fill="#1A212A" width="5.4" height="5.9"/>
				<path fill="#3E4652" d="M586.2,410.9l-30,23.2l30.6,30.6l23.2-30c2-2.7,1.8-6.4-0.6-8.8l-14.5-14.5
					C592.6,409.1,588.8,408.9,586.2,410.9z"/>
				<path fill="#282F39" d="M511.8,532.3l75-67.6l-30.6-30.6l-67.6,75c-2.4,2.6-2.3,6.7,0.2,9.2l13.8,13.8
					C505.1,534.6,509.2,534.7,511.8,532.3z"/>
				<polygon fill="#1A212A" points="542.3,449.5 571.4,478.6 586.7,464.8 556.1,434.2 				"/>
				
					<rect x="555.2" y="424.8" transform="matrix(0.7071 -0.7071 0.7071 0.7071 -150.3838 535.7407)" fill="#363D49" width="32.6" height="49.2"/>
				
					<rect x="544.3" y="435.7" transform="matrix(0.7071 -0.7071 0.7071 0.7071 -145.874 524.8531)" fill="#54555F" width="32.6" height="5.6"/>
				<circle fill="#ED1C24" cx="550.7" cy="470.3" r="4.4"/>
			</g>
			<g>
				<polygon fill="#D1D3D4" points="733.8,170.7 667.8,208.4 674.4,272.8 797.8,279 803.1,208.4 				"/>
				<polygon fill="#FFDE17" points="681.2,260.2 681.2,182.6 789.7,182.6 785.7,262.1 				"/>
				<polygon fill="#E6E7E8" points="667.8,208.4 797.8,279 674.4,272.8 				"/>
				<polygon fill="#F1F2F2" points="803.1,208.4 674.4,272.8 797.8,279 				"/>
			</g>
		</g>
	</g>
</g>
</svg>
